<svg width="50" height="50" viewBox="0 0 50 50" fill="none" xmlns="http://www.w3.org/2000/svg">
<path fill-rule="evenodd" clip-rule="evenodd" d="M4.01963 0.194284C3.07744 0.441159 2.33105 0.876217 1.60576 1.60161C0.868555 2.33882 0.443945 3.07632 0.193848 4.05415C0.00351563 4.79839 0 5.18159 0 24.9958C0 44.8101 0.00351563 45.1933 0.193848 45.9375C0.443945 46.9154 0.868555 47.6529 1.60576 48.3901C2.34297 49.1273 3.08047 49.5519 4.0583 49.802C4.80254 49.9923 5.18574 49.9958 25 49.9958C44.8143 49.9958 45.1975 49.9923 45.9417 49.802C46.9195 49.5519 47.657 49.1273 48.3942 48.3901C49.1314 47.6529 49.5561 46.9154 49.8062 45.9375C49.9965 45.1933 50 44.8101 50 24.9958C50 5.18159 49.9965 4.79839 49.8062 4.05415C49.5496 3.05131 49.1275 2.33032 48.3449 1.55835C47.5789 0.80278 46.9589 0.44985 45.939 0.18901C45.198 -0.000442821 44.7987 -0.0040561 24.96 0.00121734C5.33174 0.00649077 4.71523 0.0121548 4.01963 0.194284ZM32.666 7.53803C34.7171 8.23452 36.1966 9.65981 36.9397 11.6552C37.1827 12.3076 37.243 12.6389 37.2816 13.5361C37.3728 15.6519 36.8064 17.1032 35.3057 18.5998L34.4238 19.479L34.9121 19.8748C35.9771 20.7377 36.847 22.1323 37.1641 23.4849C37.281 23.9833 37.3124 24.4667 37.2815 25.2888C37.2126 27.1232 36.6738 28.3493 35.3474 29.691C34.1295 30.9227 32.4313 31.6306 30.6844 31.6348C29.256 31.6381 27.6675 31.1278 26.6349 30.3337C26.3793 30.1372 26.1486 29.9763 26.1222 29.9763C26.0958 29.9763 26.0734 31.5034 26.0726 33.3699C26.0706 37.2777 26.0229 37.6498 25.3515 39.0095C22.9789 43.8134 16.1782 43.9987 13.5013 39.3324C13.0106 38.4772 12.7683 37.5857 12.7189 36.4556C12.6308 34.433 13.1986 32.905 14.5508 31.527C14.9536 31.1165 15.3711 30.7334 15.4785 30.6759C15.6688 30.574 15.6676 30.5671 15.4297 30.4066C14.9781 30.1019 13.9188 28.9393 13.5917 28.3895C13.4134 28.0897 13.1501 27.5221 13.0066 27.1282C12.7689 26.4752 12.7458 26.2865 12.7458 24.9958C12.7458 23.7052 12.7689 23.5165 13.0066 22.8635C13.1501 22.4696 13.4134 21.902 13.5917 21.6022C13.9188 21.0524 14.9781 19.8898 15.4297 19.5851C15.6676 19.4246 15.6688 19.4177 15.4785 19.3158C15.3711 19.2582 14.9536 18.8752 14.5508 18.4647C13.1991 17.0871 12.6312 15.5596 12.7184 13.5361C12.757 12.6389 12.8173 12.3076 13.0603 11.6552C13.4437 10.6255 13.9449 9.8519 14.6983 9.12671C15.6688 8.19253 16.9286 7.54487 18.1995 7.3269C18.4754 7.27954 21.6675 7.24799 25.293 7.25678L31.8848 7.2728L32.666 7.53803ZM18.6535 9.47661C16.9503 9.69917 15.4207 11.0799 14.9817 12.7913C14.4258 14.9588 15.6131 17.2088 17.7757 18.0858C18.2773 18.2892 18.4852 18.3047 21.1191 18.3357L23.9277 18.3686L23.9023 13.8942L23.877 9.41967L21.582 9.40678C20.3198 9.39965 19.0021 9.4311 18.6535 9.47661ZM26.1394 9.43598C26.1035 9.47173 26.0742 11.4962 26.0742 13.9348V18.3686L28.8818 18.3356C31.5148 18.3047 31.7228 18.2891 32.2243 18.0858C33.9292 17.3944 35.0034 15.9411 35.1289 14.156C35.2927 11.8266 33.5897 9.76948 31.25 9.47046C30.4206 9.3645 26.2391 9.33628 26.1394 9.43598ZM18.6523 20.5691C18.274 20.6292 17.2872 20.9936 16.9521 21.1969C16.4684 21.4904 15.6729 22.3283 15.3974 22.8344C14.0787 25.2572 15.1866 28.166 17.8223 29.2011C18.379 29.4198 18.5457 29.4331 21.167 29.4675L23.9258 29.504V25.0038V20.5037L21.4111 20.5169C20.0281 20.5243 18.7866 20.5477 18.6523 20.5691ZM29.698 20.603C27.4063 21.0869 25.7814 23.4033 26.1545 25.6548C26.6187 28.456 29.4587 30.1306 32.1655 29.1993C33.1296 28.8675 34.2118 27.9408 34.6594 27.0635C36.1482 24.145 34.1578 20.7346 30.8594 20.5528C30.4565 20.5305 29.934 20.5532 29.698 20.603ZM18.1743 31.7911C15.8777 32.4086 14.4195 34.805 14.9474 37.0943C15.2367 38.3497 16.2121 39.5457 17.4316 40.1409C18.0985 40.4662 18.1451 40.4744 19.3359 40.4744C20.5035 40.4744 20.5852 40.4609 21.2112 40.1652C22.3099 39.6462 23.1847 38.7019 23.6386 37.5447C23.856 36.9906 23.8704 36.8141 23.9053 34.2976L23.9421 31.6365L21.3217 31.6429C19.3559 31.6477 18.5695 31.6847 18.1743 31.7911Z" fill="#BFBEC7"/>
</svg>
