<svg width="50" height="51" viewBox="0 0 50 51" fill="none" xmlns="http://www.w3.org/2000/svg">
<path fill-rule="evenodd" clip-rule="evenodd" d="M22.6656 0.0580968C14.1688 0.878243 6.57971 6.02651 2.73397 13.5793C1.37391 16.2504 0.570296 18.8261 0.130575 21.9232C-0.0643341 23.2966 -0.0360565 26.8497 0.18214 28.381C0.569611 31.1004 1.37136 33.6771 2.60011 36.1525C5.03795 41.0635 8.93242 44.9575 13.8534 47.4045C21.8307 51.3712 31.2584 50.8258 38.6991 45.9671C41.6083 44.0673 44.3655 41.2509 46.2478 38.2562C46.9631 37.118 48.0433 34.9053 48.5339 33.5732C49.0282 32.2308 49.6046 29.901 49.8184 28.381C50.035 26.8414 50.0643 23.2796 49.8714 21.9232C49.2938 17.8599 48.0053 14.4007 45.8661 11.17C44.9563 9.79603 44.0477 8.68753 42.7819 7.40722C38.8794 3.46011 34.0249 1.0121 28.4741 0.192048C27.2772 0.0152402 23.9133 -0.0623517 22.6656 0.0580968ZM27.5302 12.8024C27.9796 13.0998 28.4255 13.9124 28.4246 14.4327C28.4233 15.3614 27.7937 16.2686 27.0048 16.479C26.0001 16.7469 24.8946 15.979 24.659 14.8495C24.5615 14.3819 24.7712 13.6429 25.1222 13.217C25.7479 12.4579 26.7492 12.2855 27.5302 12.8024ZM33.6798 17.3576C33.5893 18.8429 33.4879 18.7432 35.0902 18.7432H36.4486V20.0766V21.4101L35.0787 21.3395L33.7089 21.269V24.2166C33.7089 27.4192 33.7374 27.6202 34.2484 28.0221C34.6383 28.3289 35.3354 28.2845 36.2774 27.8931C36.4357 27.8273 36.4486 27.9256 36.4486 29.1983V30.5747L35.7928 30.7773C34.456 31.1902 33.0517 31.128 32.165 30.6167C31.6481 30.3187 31.1336 29.5643 30.9071 28.7724C30.7667 28.2817 30.7326 27.6171 30.6996 24.7234L30.6602 21.2616L30.0319 21.312L29.4037 21.3625V20.0528V18.7432H30.0454H30.6872L30.657 17.5688L30.6268 16.3945L32.1826 16.3947L33.7385 16.3949L33.6798 17.3576ZM19.9344 18.9047C20.7071 19.2436 21.4867 19.2392 22.6946 18.8892C23.1573 18.755 23.5792 18.6453 23.6322 18.6453C23.6909 18.6453 23.7286 19.1803 23.7286 20.0124V21.3795L23.1822 21.5384C22.7033 21.6776 22.6421 21.7233 22.6875 21.9081C22.8442 22.5466 22.8522 23.1525 22.7128 23.8143C22.3058 25.747 21.1953 26.9031 19.227 27.4431C18.307 27.6955 18.0535 27.948 18.0535 28.6126C18.0535 29.3908 18.3455 29.5974 20.2149 30.1428C22.2793 30.7452 22.8454 31.0874 23.2942 32.0045C23.5375 32.5019 23.5521 32.6062 23.5153 33.59C23.4817 34.4875 23.4349 34.7333 23.1982 35.2531C22.4719 36.8485 20.7215 37.6268 18.1514 37.4969C16.8851 37.433 16.2363 37.2821 15.3479 36.8447C14.2033 36.2812 13.5526 35.2224 13.5526 33.9234C13.5526 32.534 14.0828 31.6586 15.2874 31.0591C15.6517 30.8777 15.9677 30.7188 15.9897 30.7058C16.0115 30.6929 15.9104 30.572 15.7649 30.4372C14.9648 29.6957 14.8935 28.02 15.6285 27.2332C15.7814 27.0694 15.8944 26.927 15.8793 26.9168C15.8643 26.9067 15.6869 26.7991 15.4851 26.6777C14.3954 26.0223 13.5369 24.0628 13.7046 22.6136C13.7866 21.9055 14.0375 21.1511 14.3609 20.6408C14.9316 19.7403 16.1975 18.876 17.2813 18.6469C18.0423 18.486 19.2465 18.6031 19.9344 18.9047ZM28.0338 24.8096V30.8761H26.5417H25.0495V24.8096V18.7432H26.5417H28.0338V24.8096ZM17.4565 21.3155C16.9239 21.6742 16.643 22.2862 16.6386 23.0971C16.6337 24.0084 16.8653 24.4822 17.4665 24.7915C17.8156 24.9711 18.0235 25.0103 18.4706 24.9809C19.4931 24.9135 19.9596 24.3382 19.9579 23.1464C19.9571 22.5493 19.9117 22.331 19.7146 21.9759C19.3765 21.3667 18.9356 21.0915 18.2981 21.0915C17.9296 21.0915 17.6971 21.1533 17.4565 21.3155ZM17.3826 32.3858C16.0839 32.81 15.937 34.2209 17.124 34.8716C17.5606 35.111 19.6393 35.1037 20.083 34.8613C21.0389 34.3389 21.0137 33.0014 20.0389 32.5296C19.4714 32.2548 18.0234 32.1765 17.3826 32.3858Z" fill="#BFBEC7"/>
</svg>
