<svg width="50" height="50" viewBox="0 0 50 50" fill="none" xmlns="http://www.w3.org/2000/svg">
<rect width="50" height="50" fill="#BFBEC7"/>
<path fill-rule="evenodd" clip-rule="evenodd" d="M37.4661 22.9132C34.7633 23.3401 32.8693 24.9063 32.1405 27.3175C31.9035 28.1011 31.9014 29.9664 32.1362 30.8463C32.5239 32.2984 33.3029 33.4373 34.5465 34.3711C35.4592 35.0564 36.1651 35.4346 38.0898 36.2699C41.2754 37.6522 41.8706 38.1217 42.0179 39.3689C42.1319 40.3329 41.46 41.2796 40.399 41.6499C39.6969 41.895 38.0759 41.9022 37.3057 41.6637C36.3019 41.3528 35.4737 40.6721 34.4698 39.3326L34.2767 39.075L32.4425 40.1482C31.4338 40.7385 30.5923 41.2372 30.5726 41.2565C30.504 41.3233 31.0736 42.2231 31.5853 42.8567C32.7644 44.3164 34.5603 45.3678 36.6433 45.8178C37.2602 45.9511 37.8554 45.9931 39.0551 45.9882C40.9758 45.9803 41.9013 45.7884 43.3026 45.1072C44.0499 44.7438 44.3544 44.5249 44.947 43.9245C46.1674 42.6881 46.6829 41.3773 46.6797 39.5182C46.6745 36.4746 45.3201 34.5606 41.9994 32.9041C41.5747 32.6922 40.6407 32.2646 39.9239 31.9538C37.1677 30.7586 36.5527 30.208 36.5474 28.9308C36.5423 27.6967 37.4126 26.9425 38.8278 26.9546C39.9622 26.9643 40.7607 27.442 41.4878 28.5463L41.726 28.9081L42.6833 28.2969C43.2098 27.9608 44.0218 27.4388 44.4879 27.1369L45.3352 26.5882L45.1901 26.3067C44.9459 25.8333 44.0901 24.82 43.5617 24.3788C42.8975 23.824 41.9038 23.3257 40.9994 23.0938C40.1395 22.8733 38.3108 22.7798 37.4661 22.9132ZM23.3969 31.5481L23.3684 39.9935L23.1457 40.546C22.7695 41.4798 22.156 41.8309 20.9067 41.8275C19.7387 41.8243 19.0457 41.3479 18.2094 39.9734L17.9027 39.4693L16.0502 40.593C15.0313 41.211 14.1838 41.7275 14.167 41.7407C14.0907 41.801 14.6676 42.7838 15.0872 43.3079C16.0389 44.4972 17.368 45.3662 18.8518 45.7697C19.8875 46.0513 22.1647 46.0747 23.2236 45.8145C25.603 45.23 27.1206 43.7435 27.7832 41.3486C27.9961 40.5792 27.9976 40.5184 28.0277 31.8385L28.058 23.1027H25.7417H23.4255L23.3969 31.5481Z" fill="white"/>
</svg>
