<svg width="150" height="22" viewBox="0 0 150 22" fill="none" xmlns="http://www.w3.org/2000/svg">
<path d="M1.66 21C1.47333 21 1.30533 20.9347 1.156 20.804C1.02533 20.6733 0.96 20.5053 0.96 20.3V2.1C0.96 1.89467 1.02533 1.72667 1.156 1.596C1.30533 1.46533 1.47333 1.4 1.66 1.4H4.684C4.98267 1.4 5.20667 1.484 5.356 1.652C5.524 1.80133 5.62667 1.92267 5.664 2.016L10.592 10.864L15.52 2.016C15.576 1.92267 15.6693 1.80133 15.8 1.652C15.9493 1.484 16.1827 1.4 16.5 1.4H19.496C19.7013 1.4 19.8693 1.46533 20 1.596C20.1493 1.72667 20.224 1.89467 20.224 2.1V20.3C20.224 20.5053 20.1493 20.6733 20 20.804C19.8693 20.9347 19.7013 21 19.496 21H16.164C15.9587 21 15.7813 20.9347 15.632 20.804C15.5013 20.6733 15.436 20.5053 15.436 20.3V9.8L12.272 15.652C12.1973 15.82 12.0853 15.9693 11.936 16.1C11.7867 16.2307 11.5813 16.296 11.32 16.296H9.864C9.60267 16.296 9.39733 16.2307 9.248 16.1C9.09867 15.9693 8.97733 15.82 8.884 15.652L5.72 9.8V20.3C5.72 20.5053 5.65467 20.6733 5.524 20.804C5.39333 20.9347 5.22533 21 5.02 21H1.66ZM30.7002 21.28C29.1322 21.28 27.8068 21.028 26.7242 20.524C25.6602 20.02 24.8388 19.3013 24.2602 18.368C23.7002 17.416 23.3828 16.2867 23.3082 14.98C23.2895 14.6067 23.2802 14.1867 23.2802 13.72C23.2802 13.2347 23.2895 12.8147 23.3082 12.46C23.3828 11.1347 23.7188 10.0053 24.3162 9.072C24.9135 8.13867 25.7442 7.42 26.8082 6.916C27.8908 6.412 29.1882 6.16 30.7002 6.16C32.2308 6.16 33.5282 6.412 34.5922 6.916C35.6748 7.42 36.5148 8.13867 37.1122 9.072C37.7095 10.0053 38.0455 11.1347 38.1202 12.46C38.1388 12.8147 38.1482 13.2347 38.1482 13.72C38.1482 14.1867 38.1388 14.6067 38.1202 14.98C38.0455 16.2867 37.7188 17.416 37.1402 18.368C36.5802 19.3013 35.7588 20.02 34.6762 20.524C33.6122 21.028 32.2868 21.28 30.7002 21.28ZM30.7002 17.864C31.5402 17.864 32.1468 17.612 32.5202 17.108C32.9122 16.604 33.1362 15.848 33.1922 14.84C33.2108 14.56 33.2202 14.1867 33.2202 13.72C33.2202 13.2533 33.2108 12.88 33.1922 12.6C33.1362 11.6107 32.9122 10.864 32.5202 10.36C32.1468 9.83733 31.5402 9.576 30.7002 9.576C29.8788 9.576 29.2722 9.83733 28.8802 10.36C28.4882 10.864 28.2735 11.6107 28.2362 12.6C28.2175 12.88 28.2082 13.2533 28.2082 13.72C28.2082 14.1867 28.2175 14.56 28.2362 14.84C28.2735 15.848 28.4882 16.604 28.8802 17.108C29.2722 17.612 29.8788 17.864 30.7002 17.864ZM41.602 21C41.3967 21 41.2287 20.9347 41.098 20.804C40.9673 20.6733 40.902 20.5053 40.902 20.3V1.82C40.902 1.61467 40.9673 1.44667 41.098 1.316C41.2287 1.18533 41.3967 1.12 41.602 1.12H45.186C45.3913 1.12 45.5593 1.18533 45.69 1.316C45.8207 1.44667 45.886 1.61467 45.886 1.82V8.064C46.39 7.48533 47.006 7.028 47.734 6.692C48.4807 6.33733 49.3393 6.16 50.31 6.16C51.3927 6.16 52.354 6.40267 53.194 6.888C54.0527 7.37333 54.7247 8.092 55.21 9.044C55.6953 9.97733 55.938 11.1253 55.938 12.488V20.3C55.938 20.5053 55.8727 20.6733 55.742 20.804C55.6113 20.9347 55.4433 21 55.238 21H51.626C51.4393 21 51.2713 20.9347 51.122 20.804C50.9913 20.6733 50.926 20.5053 50.926 20.3V12.656C50.926 11.7787 50.7113 11.1067 50.282 10.64C49.8713 10.1547 49.2553 9.912 48.434 9.912C47.6687 9.912 47.0527 10.1547 46.586 10.64C46.1193 11.1067 45.886 11.7787 45.886 12.656V20.3C45.886 20.5053 45.8207 20.6733 45.69 20.804C45.5593 20.9347 45.3913 21 45.186 21H41.602ZM63.4809 21.28C62.4729 21.28 61.5676 21.0933 60.7649 20.72C59.9809 20.328 59.3556 19.8053 58.8889 19.152C58.4223 18.4987 58.1889 17.7613 58.1889 16.94C58.1889 15.6147 58.7303 14.5693 59.8129 13.804C60.8956 13.02 62.3329 12.488 64.1249 12.208L67.6249 11.676V11.284C67.6249 10.612 67.4849 10.0987 67.2049 9.744C66.9249 9.38933 66.4116 9.212 65.6649 9.212C65.1423 9.212 64.7129 9.31467 64.3769 9.52C64.0596 9.72533 63.8076 10.0053 63.6209 10.36C63.4529 10.6027 63.2196 10.724 62.9209 10.724H59.7849C59.5796 10.724 59.4209 10.668 59.3089 10.556C59.1969 10.4253 59.1503 10.276 59.1689 10.108C59.1689 9.772 59.2903 9.38933 59.5329 8.96C59.7943 8.512 60.1863 8.07333 60.7089 7.644C61.2316 7.21467 61.9036 6.86 62.7249 6.58C63.5463 6.3 64.5356 6.16 65.6929 6.16C66.9063 6.16 67.9423 6.3 68.8009 6.58C69.6596 6.86 70.3503 7.252 70.8729 7.756C71.4143 8.26 71.8156 8.85733 72.0769 9.548C72.3383 10.22 72.4689 10.9667 72.4689 11.788V20.3C72.4689 20.5053 72.3943 20.6733 72.2449 20.804C72.1143 20.9347 71.9556 21 71.7689 21H68.5209C68.3156 21 68.1476 20.9347 68.0169 20.804C67.8863 20.6733 67.8209 20.5053 67.8209 20.3V19.32C67.5783 19.6747 67.2516 20.0013 66.8409 20.3C66.4303 20.5987 65.9449 20.832 65.3849 21C64.8436 21.1867 64.2089 21.28 63.4809 21.28ZM64.7969 18.088C65.3383 18.088 65.8236 17.976 66.2529 17.752C66.7009 17.5093 67.0463 17.1453 67.2889 16.66C67.5503 16.156 67.6809 15.5307 67.6809 14.784V14.392L65.3009 14.812C64.4236 14.9613 63.7796 15.1947 63.3689 15.512C62.9769 15.8107 62.7809 16.1653 62.7809 16.576C62.7809 16.8933 62.8743 17.164 63.0609 17.388C63.2476 17.612 63.4903 17.7893 63.7889 17.92C64.0876 18.032 64.4236 18.088 64.7969 18.088ZM76.3286 21C76.1232 21 75.9552 20.9347 75.8246 20.804C75.6939 20.6733 75.6286 20.5053 75.6286 20.3V7.14C75.6286 6.93467 75.6939 6.76667 75.8246 6.636C75.9552 6.50533 76.1232 6.44 76.3286 6.44H79.6326C79.8192 6.44 79.9779 6.50533 80.1086 6.636C80.2579 6.76667 80.3326 6.93467 80.3326 7.14V20.3C80.3326 20.5053 80.2579 20.6733 80.1086 20.804C79.9779 20.9347 79.8192 21 79.6326 21H76.3286ZM76.3006 4.34C76.0952 4.34 75.9272 4.27467 75.7966 4.144C75.6659 4.01333 75.6006 3.84533 75.6006 3.64V1.148C75.6006 0.942666 75.6659 0.774666 75.7966 0.643998C75.9272 0.494666 76.0952 0.42 76.3006 0.42H79.6326C79.8379 0.42 80.0059 0.494666 80.1366 0.643998C80.2859 0.774666 80.3606 0.942666 80.3606 1.148V3.64C80.3606 3.84533 80.2859 4.01333 80.1366 4.144C80.0059 4.27467 79.8379 4.34 79.6326 4.34H76.3006ZM85.1879 21C84.9826 21 84.8146 20.9347 84.6839 20.804C84.5533 20.6733 84.4879 20.5053 84.4879 20.3V7.14C84.4879 6.93467 84.5533 6.76667 84.6839 6.636C84.8146 6.50533 84.9826 6.44 85.1879 6.44H88.2399C88.4453 6.44 88.6133 6.50533 88.7439 6.636C88.8746 6.76667 88.9399 6.93467 88.9399 7.14V8.092C89.3133 7.588 89.8359 7.14933 90.5079 6.776C91.1799 6.384 91.9733 6.17867 92.8879 6.16C95.0346 6.12267 96.5093 6.93467 97.3119 8.596C97.7413 7.88667 98.3573 7.308 99.1599 6.86C99.9626 6.39333 100.84 6.16 101.792 6.16C102.763 6.16 103.631 6.384 104.396 6.832C105.18 7.26133 105.805 7.93333 106.272 8.848C106.739 9.744 106.972 10.9107 106.972 12.348V20.3C106.972 20.5053 106.897 20.6733 106.748 20.804C106.617 20.9347 106.459 21 106.272 21H103.024C102.819 21 102.641 20.9347 102.492 20.804C102.361 20.6733 102.296 20.5053 102.296 20.3V12.544C102.296 11.8907 102.203 11.3773 102.016 11.004C101.829 10.612 101.577 10.332 101.26 10.164C100.943 9.996 100.579 9.912 100.168 9.912C99.8319 9.912 99.4959 9.996 99.1599 10.164C98.8426 10.332 98.5813 10.612 98.3759 11.004C98.1893 11.3773 98.0959 11.8907 98.0959 12.544V20.3C98.0959 20.5053 98.0306 20.6733 97.8999 20.804C97.7693 20.9347 97.6013 21 97.3959 21H94.1479C93.9426 21 93.7746 20.9347 93.6439 20.804C93.5133 20.6733 93.4479 20.5053 93.4479 20.3V12.544C93.4479 11.8907 93.3453 11.3773 93.1399 11.004C92.9346 10.612 92.6733 10.332 92.3559 10.164C92.0386 9.996 91.6839 9.912 91.2919 9.912C90.9559 9.912 90.6199 9.996 90.2839 10.164C89.9666 10.332 89.7053 10.612 89.4999 11.004C89.3133 11.3773 89.2199 11.8813 89.2199 12.516V20.3C89.2199 20.5053 89.1453 20.6733 88.9959 20.804C88.8653 20.9347 88.6973 21 88.4919 21H85.1879ZM114.477 21.28C113.469 21.28 112.564 21.0933 111.761 20.72C110.977 20.328 110.352 19.8053 109.885 19.152C109.418 18.4987 109.185 17.7613 109.185 16.94C109.185 15.6147 109.726 14.5693 110.809 13.804C111.892 13.02 113.329 12.488 115.121 12.208L118.621 11.676V11.284C118.621 10.612 118.481 10.0987 118.201 9.744C117.921 9.38933 117.408 9.212 116.661 9.212C116.138 9.212 115.709 9.31467 115.373 9.52C115.056 9.72533 114.804 10.0053 114.617 10.36C114.449 10.6027 114.216 10.724 113.917 10.724H110.781C110.576 10.724 110.417 10.668 110.305 10.556C110.193 10.4253 110.146 10.276 110.165 10.108C110.165 9.772 110.286 9.38933 110.529 8.96C110.79 8.512 111.182 8.07333 111.705 7.644C112.228 7.21467 112.9 6.86 113.721 6.58C114.542 6.3 115.532 6.16 116.689 6.16C117.902 6.16 118.938 6.3 119.797 6.58C120.656 6.86 121.346 7.252 121.869 7.756C122.41 8.26 122.812 8.85733 123.073 9.548C123.334 10.22 123.465 10.9667 123.465 11.788V20.3C123.465 20.5053 123.39 20.6733 123.241 20.804C123.11 20.9347 122.952 21 122.765 21H119.517C119.312 21 119.144 20.9347 119.013 20.804C118.882 20.6733 118.817 20.5053 118.817 20.3V19.32C118.574 19.6747 118.248 20.0013 117.837 20.3C117.426 20.5987 116.941 20.832 116.381 21C115.84 21.1867 115.205 21.28 114.477 21.28ZM115.793 18.088C116.334 18.088 116.82 17.976 117.249 17.752C117.697 17.5093 118.042 17.1453 118.285 16.66C118.546 16.156 118.677 15.5307 118.677 14.784V14.392L116.297 14.812C115.42 14.9613 114.776 15.1947 114.365 15.512C113.973 15.8107 113.777 16.1653 113.777 16.576C113.777 16.8933 113.87 17.164 114.057 17.388C114.244 17.612 114.486 17.7893 114.785 17.92C115.084 18.032 115.42 18.088 115.793 18.088ZM127.325 21C127.119 21 126.951 20.9347 126.821 20.804C126.69 20.6733 126.625 20.5053 126.625 20.3V7.14C126.625 6.93467 126.69 6.76667 126.821 6.636C126.951 6.50533 127.119 6.44 127.325 6.44H130.545C130.75 6.44 130.918 6.50533 131.049 6.636C131.179 6.76667 131.245 6.93467 131.245 7.14V8.204C131.73 7.62533 132.365 7.14 133.149 6.748C133.933 6.356 134.857 6.16 135.921 6.16C137.003 6.16 137.955 6.40267 138.777 6.888C139.617 7.37333 140.27 8.092 140.737 9.044C141.222 9.97733 141.465 11.1253 141.465 12.488V20.3C141.465 20.5053 141.39 20.6733 141.241 20.804C141.11 20.9347 140.951 21 140.765 21H137.237C137.05 21 136.882 20.9347 136.733 20.804C136.602 20.6733 136.537 20.5053 136.537 20.3V12.656C136.537 11.7787 136.322 11.1067 135.893 10.64C135.482 10.1547 134.866 9.912 134.045 9.912C133.279 9.912 132.663 10.1547 132.197 10.64C131.749 11.1067 131.525 11.7787 131.525 12.656V20.3C131.525 20.5053 131.45 20.6733 131.301 20.804C131.17 20.9347 131.011 21 130.825 21H127.325Z" fill="#353353"/>
<path d="M145.15 21C144.944 21 144.776 20.9347 144.646 20.804C144.515 20.6733 144.45 20.5053 144.45 20.3V16.744C144.45 16.5573 144.515 16.3987 144.646 16.268C144.776 16.1187 144.944 16.044 145.15 16.044H148.678C148.883 16.044 149.051 16.1187 149.182 16.268C149.331 16.3987 149.406 16.5573 149.406 16.744V20.3C149.406 20.5053 149.331 20.6733 149.182 20.804C149.051 20.9347 148.883 21 148.678 21H145.15Z" fill="#FF4C60"/>
</svg>
