<svg width="50" height="56" viewBox="0 0 50 56" fill="none" xmlns="http://www.w3.org/2000/svg">
<path fill-rule="evenodd" clip-rule="evenodd" d="M23.6444 0.116069C22.2017 0.451122 20.9281 1.23349 19.6393 2.57619C18.1428 4.13531 16.608 6.73219 15.6497 9.32702C15.4249 9.9356 15.1888 10.4333 15.125 10.4333C15.0612 10.4332 14.6204 10.3648 14.1454 10.2812C9.36378 9.44036 5.09713 10.0794 2.77497 11.9842C0.54563 13.8129 -0.0892877 16.7773 1.02608 20.1483C1.59332 21.8627 3.08811 24.4183 4.68792 26.4089C5.23346 27.0877 5.31755 27.2467 5.20842 27.3927C5.13686 27.4886 4.76251 27.943 4.37662 28.4026C2.72985 30.3638 1.17029 32.9895 0.553834 34.8391C-0.985318 39.4567 0.73345 43.1069 5.08925 44.4716C7.46841 45.2169 10.868 45.2685 14.3073 44.6114C14.7526 44.5263 15.1219 44.464 15.1278 44.473C15.1338 44.4819 15.3462 45.0479 15.5997 45.7306C17.3842 50.5364 20.1093 53.8969 23.0507 54.9191C24.0558 55.2684 25.9314 55.2684 26.9366 54.9191C29.061 54.1808 31.0168 52.3165 32.6568 49.4665C33.2373 48.4577 34.2001 46.3301 34.6043 45.1631C34.7936 44.6163 34.8992 44.4462 35.0256 44.4837C35.9499 44.7581 38.9137 45.083 40.4922 45.083C43.7214 45.083 46.3326 44.2712 47.9614 42.7612C50.4148 40.4866 50.6596 37.0913 48.6641 33.0084C48.0761 31.805 46.5326 29.4761 45.5869 28.3651C45.2141 27.927 44.8504 27.4899 44.7788 27.3936C44.6696 27.2466 44.7532 27.0885 45.2993 26.4089C46.8986 24.4189 48.3664 21.9064 48.9568 20.1483C50.6747 15.032 48.289 11.0872 42.9204 10.1669C40.8697 9.81535 38.2505 9.85766 35.8419 10.2812C35.3669 10.3648 34.9261 10.4332 34.8623 10.4333C34.7985 10.4333 34.5624 9.9356 34.3376 9.32702C32.6215 4.68085 29.8037 1.23781 26.9366 0.283919C26.0427 -0.0134623 24.5336 -0.0904253 23.6444 0.116069ZM26.4553 3.59182C28.0945 4.3853 29.8467 6.81131 31.1921 10.1502C31.6249 11.2243 31.6399 11.297 31.4277 11.297C31.1486 11.297 28.082 12.342 26.5354 12.964L25.0009 13.5814L23.459 12.9636C21.9001 12.339 18.8367 11.297 18.5596 11.297C18.3545 11.297 18.3625 11.2513 18.7383 10.2755C20.1773 6.53832 22.2029 3.96767 24.238 3.29595C24.751 3.12669 25.7772 3.26356 26.4553 3.59182ZM13.165 13.3994C13.7538 13.4898 14.246 13.5761 14.2589 13.5909C14.2717 13.6056 14.1197 14.3706 13.921 15.2908C13.7223 16.2111 13.4489 17.7353 13.3133 18.6782L13.0669 20.3924L12.4188 20.8859C11.1368 21.8621 9.59369 23.1306 8.6207 24.0078L7.62957 24.9015L6.93431 24.009C4.8969 21.3937 3.86162 19.2355 3.75681 17.3844C3.68816 16.1711 3.87566 15.5225 4.5001 14.8131C5.19029 14.029 6.6949 13.418 8.47843 13.1975C9.18999 13.1096 12.0939 13.2346 13.165 13.3994ZM42.6962 13.4024C44.4667 13.8011 45.705 14.6771 46.0883 15.8018C46.7403 17.7152 45.6418 20.6859 43.0542 24.0074L42.3603 24.8983L41.3679 24.0073C40.1838 22.9443 38.9643 21.9369 37.7804 21.0436L36.9124 20.3889L36.7161 18.9462C36.5408 17.6587 35.9098 14.3337 35.738 13.7925C35.6795 13.6083 35.7555 13.5707 36.4046 13.4623C38.582 13.0987 41.2354 13.0735 42.6962 13.4024ZM19.2113 14.8635C20.1356 15.1627 20.8918 15.444 20.8918 15.4884C20.8918 15.5328 20.5397 15.7581 20.1092 15.9889C19.6788 16.2197 18.7317 16.7614 18.0044 17.1928C17.277 17.6241 16.6821 17.9622 16.6821 17.9441C16.6821 17.6836 17.4384 14.3194 17.497 14.3194C17.5156 14.3194 18.2871 14.5642 19.2113 14.8635ZM32.6531 14.8321C32.7671 15.2843 33.3052 17.8545 33.3052 17.9464C33.3052 17.9659 32.8802 17.7236 32.3607 17.408C31.8413 17.0925 30.8941 16.5484 30.2558 16.1987C29.6176 15.8492 29.0954 15.5281 29.0954 15.4852C29.0954 15.4221 32.2184 14.3435 32.4558 14.3248C32.4933 14.3218 32.5821 14.55 32.6531 14.8321ZM26.7003 17.9838C28.6567 18.9748 30.8974 20.2653 32.6205 21.3929L33.8248 22.1811L33.9158 23.0268C33.9659 23.4918 34.0053 25.7181 34.0034 27.9741C34.0008 31.1333 33.9678 32.1339 33.8596 32.3282C33.5922 32.8089 29.3519 35.4281 26.4724 36.891L24.9828 37.6479L23.2342 36.7396C20.2172 35.1723 16.3851 32.7898 16.1221 32.3178C15.9628 32.0321 15.921 24.4247 16.0709 23.0326L16.1613 22.1929L16.9344 21.6718C18.3711 20.7034 20.9981 19.1704 22.9741 18.1473C24.0552 17.5876 24.9548 17.1288 24.9732 17.1278C24.9917 17.1267 25.7689 17.512 26.7003 17.9838ZM23.3629 22.8872C21.2813 23.6221 20.0249 25.4063 20.0305 27.6198C20.0345 29.2001 20.6589 30.4927 21.9029 31.4965C22.782 32.2058 23.528 32.4751 24.7777 32.5347C25.6307 32.5752 25.9191 32.5443 26.4926 32.3505C28.113 31.8031 29.2011 30.7136 29.75 29.089C30.056 28.1832 30.0053 26.6619 29.6384 25.7401C29.338 24.985 28.5663 24.0096 27.8802 23.5176C26.6449 22.6316 24.8118 22.3759 23.3629 22.8872ZM12.6647 28.5372L12.6342 29.8021L11.7707 29.0395C11.2957 28.62 10.6643 28.0528 10.3674 27.7789L9.82771 27.2812L10.5833 26.5907C10.9989 26.211 11.6304 25.6555 11.9866 25.3562L12.6342 24.8121L12.6647 26.0422C12.6814 26.7189 12.6814 27.8416 12.6647 28.5372ZM39.323 26.5053C39.7535 26.8879 40.1056 27.2381 40.1056 27.2837C40.1056 27.3706 37.7121 29.5304 37.4504 29.6796C37.3225 29.7525 37.2991 29.3796 37.2991 27.2647V24.7636L37.9197 25.2866C38.2612 25.5743 38.8925 26.1227 39.323 26.5053ZM8.67618 30.6082C9.87294 31.7104 10.9795 32.6416 12.1688 33.548C12.9574 34.1489 13.0021 34.2059 13.0653 34.6933C13.3121 36.5929 13.6115 38.4434 13.8885 39.7795C14.0653 40.6325 14.1954 41.3425 14.1777 41.3573C14.16 41.3722 13.5868 41.4738 12.9041 41.5831C11.1821 41.859 7.77627 41.8648 6.69738 41.5936C5.06173 41.1826 4.04232 40.5036 3.5474 39.4958C3.27906 38.9494 3.24419 38.7616 3.25175 37.9048C3.26546 36.3477 3.9429 34.6125 5.37994 32.4537C5.92419 31.6361 7.48342 29.6472 7.58024 29.6472C7.60896 29.6472 8.10214 30.0796 8.67618 30.6082ZM43.2639 30.6457C45.5553 33.4894 46.718 35.9208 46.7355 37.9048C46.7431 38.7613 46.7081 38.9495 46.4403 39.4948C45.9557 40.4816 45.0415 41.1069 43.451 41.539C42.6392 41.7595 42.2934 41.7879 40.4294 41.7868C38.8999 41.786 37.9853 41.7308 37.0832 41.585C36.4005 41.4747 35.8273 41.3722 35.8096 41.3573C35.7919 41.3425 35.9219 40.6325 36.0988 39.7795C36.3756 38.4438 36.6756 36.5901 36.9217 34.6949C36.983 34.2224 37.0389 34.1449 37.6563 33.6768C38.7277 32.8643 40.6325 31.2564 41.5088 30.4246C41.9541 30.002 42.3501 29.6542 42.3889 29.6517C42.4276 29.6492 42.8214 30.0966 43.2639 30.6457ZM18.4631 37.7997C19.1755 38.2231 20.0629 38.7309 20.435 38.9279C20.8071 39.125 21.0973 39.3004 21.08 39.3178C21.033 39.3648 17.5279 40.5494 17.4358 40.5494C17.3923 40.5494 17.3282 40.4158 17.2933 40.2525C17.1833 39.7375 16.7104 37.3809 16.641 37.002L16.5747 36.639L16.8712 36.8343C17.0344 36.9418 17.7507 37.3762 18.4631 37.7997ZM33.249 37.5283C32.9517 39.1417 32.6229 40.5494 32.5433 40.5494C32.4602 40.5494 28.9554 39.3599 28.9068 39.3152C28.8921 39.3016 29.3778 39.0171 29.9862 38.683C30.5947 38.3487 31.6024 37.7649 32.2258 37.3855C32.8491 37.0061 33.3679 36.7012 33.3785 36.7079C33.3892 36.7146 33.3308 37.0838 33.249 37.5283ZM26.0331 41.6347C27.4259 42.2276 29.3749 42.9488 30.5527 43.3072C31.087 43.4699 31.5622 43.6363 31.6086 43.6771C31.8314 43.873 30.1907 47.4473 29.1981 48.9286C28.4411 50.0583 27.2646 51.2069 26.4505 51.6112C25.9076 51.8809 25.6726 51.933 24.9936 51.9346C24.2721 51.9365 24.1077 51.8955 23.4831 51.5592C22.1076 50.8186 20.7935 49.2298 19.6359 46.9077C19.0411 45.7149 18.261 43.7918 18.3398 43.713C18.3638 43.6891 19.2271 43.3843 20.2583 43.0357C21.2895 42.6871 22.7646 42.133 23.5364 41.8044C24.3082 41.4757 24.9542 41.2047 24.9722 41.202C24.9901 41.1993 25.4675 41.394 26.0331 41.6347Z" fill="#BFBEC7"/>
</svg>
